<mxfile host="app.diagrams.net" modified="2023-05-26T21:04:52.814Z" agent="Mozilla/5.0 (Windows NT 10.0; Win64; x64; rv:109.0) Gecko/20100101 Firefox/113.0" etag="vzgnZ7MOLnjcOwR1F3Q0" version="21.3.4" type="github">
  <diagram name="Page-1" id="zEKcaAosDp04uGz9b01u">
    <mxGraphModel dx="1050" dy="511" grid="1" gridSize="10" guides="1" tooltips="1" connect="1" arrows="1" fold="1" page="1" pageScale="1" pageWidth="1169" pageHeight="827" math="0" shadow="0">
      <root>
        <mxCell id="0" />
        <mxCell id="1" parent="0" />
        <object label="" id="wLdMi0JbWeujEpgoxF2W-1">
          <mxCell style="shape=umlActor;verticalLabelPosition=bottom;verticalAlign=top;html=1;outlineConnect=0;" parent="1" vertex="1">
            <mxGeometry x="70" y="50" width="30" height="60" as="geometry" />
          </mxCell>
        </object>
        <mxCell id="wLdMi0JbWeujEpgoxF2W-58" value="Visitor" style="text;html=1;strokeColor=none;fillColor=none;align=center;verticalAlign=middle;whiteSpace=wrap;rounded=0;" parent="1" vertex="1">
          <mxGeometry x="55" y="110" width="60" height="30" as="geometry" />
        </mxCell>
        <object label="" id="wLdMi0JbWeujEpgoxF2W-60">
          <mxCell style="shape=umlActor;verticalLabelPosition=bottom;verticalAlign=top;html=1;outlineConnect=0;" parent="1" vertex="1">
            <mxGeometry x="70" y="320" width="30" height="60" as="geometry" />
          </mxCell>
        </object>
        <mxCell id="wLdMi0JbWeujEpgoxF2W-61" value="User" style="text;html=1;strokeColor=none;fillColor=none;align=center;verticalAlign=middle;whiteSpace=wrap;rounded=0;" parent="1" vertex="1">
          <mxGeometry x="55" y="384" width="60" height="30" as="geometry" />
        </mxCell>
        <object label="" id="wLdMi0JbWeujEpgoxF2W-62">
          <mxCell style="shape=umlActor;verticalLabelPosition=bottom;verticalAlign=top;html=1;outlineConnect=0;" parent="1" vertex="1">
            <mxGeometry x="785" y="40" width="30" height="60" as="geometry" />
          </mxCell>
        </object>
        <mxCell id="wLdMi0JbWeujEpgoxF2W-63" value="administrator" style="text;html=1;strokeColor=none;fillColor=none;align=center;verticalAlign=middle;whiteSpace=wrap;rounded=0;" parent="1" vertex="1">
          <mxGeometry x="770" y="100" width="60" height="30" as="geometry" />
        </mxCell>
        <object label="" id="wLdMi0JbWeujEpgoxF2W-64">
          <mxCell style="shape=umlActor;verticalLabelPosition=bottom;verticalAlign=top;html=1;outlineConnect=0;" parent="1" vertex="1">
            <mxGeometry x="895" y="40" width="30" height="60" as="geometry" />
          </mxCell>
        </object>
        <mxCell id="wLdMi0JbWeujEpgoxF2W-65" value="Commentator" style="text;html=1;strokeColor=none;fillColor=none;align=center;verticalAlign=middle;whiteSpace=wrap;rounded=0;" parent="1" vertex="1">
          <mxGeometry x="880" y="100" width="60" height="30" as="geometry" />
        </mxCell>
        <mxCell id="wLdMi0JbWeujEpgoxF2W-66" value="" style="endArrow=classic;html=1;rounded=0;" parent="1" edge="1">
          <mxGeometry width="50" height="50" relative="1" as="geometry">
            <mxPoint x="84.5" y="200" as="sourcePoint" />
            <mxPoint x="84.5" y="130" as="targetPoint" />
            <Array as="points">
              <mxPoint x="85" y="310" />
              <mxPoint x="84.5" y="200" />
            </Array>
          </mxGeometry>
        </mxCell>
        <mxCell id="jrktIPFpg-V5dbfAkfg9-1" value="visualise les matchs" style="ellipse;whiteSpace=wrap;html=1;" vertex="1" parent="1">
          <mxGeometry x="210" y="40" width="180" height="60" as="geometry" />
        </mxCell>
        <mxCell id="jrktIPFpg-V5dbfAkfg9-3" value="" style="endArrow=none;html=1;rounded=0;" edge="1" parent="1">
          <mxGeometry width="50" height="50" relative="1" as="geometry">
            <mxPoint x="120" y="69.5" as="sourcePoint" />
            <mxPoint x="210" y="69.5" as="targetPoint" />
          </mxGeometry>
        </mxCell>
        <mxCell id="jrktIPFpg-V5dbfAkfg9-4" value="visualise le détail d&#39;un match" style="ellipse;whiteSpace=wrap;html=1;" vertex="1" parent="1">
          <mxGeometry x="210" y="110" width="180" height="60" as="geometry" />
        </mxCell>
        <mxCell id="jrktIPFpg-V5dbfAkfg9-5" value="se crée un compte" style="ellipse;whiteSpace=wrap;html=1;" vertex="1" parent="1">
          <mxGeometry x="210" y="180" width="180" height="60" as="geometry" />
        </mxCell>
        <mxCell id="jrktIPFpg-V5dbfAkfg9-6" value="Se connecter" style="ellipse;whiteSpace=wrap;html=1;" vertex="1" parent="1">
          <mxGeometry x="600" y="180" width="180" height="60" as="geometry" />
        </mxCell>
        <mxCell id="jrktIPFpg-V5dbfAkfg9-9" value="" style="endArrow=classic;html=1;rounded=0;entryX=0;entryY=0.5;entryDx=0;entryDy=0;dashed=1;" edge="1" parent="1" target="jrktIPFpg-V5dbfAkfg9-6">
          <mxGeometry width="50" height="50" relative="1" as="geometry">
            <mxPoint x="390" y="209.5" as="sourcePoint" />
            <mxPoint x="530" y="209.5" as="targetPoint" />
          </mxGeometry>
        </mxCell>
        <mxCell id="jrktIPFpg-V5dbfAkfg9-10" value="&quot;extend&quot;" style="text;html=1;strokeColor=none;fillColor=none;align=center;verticalAlign=middle;whiteSpace=wrap;rounded=0;" vertex="1" parent="1">
          <mxGeometry x="460" y="180" width="60" height="30" as="geometry" />
        </mxCell>
        <mxCell id="jrktIPFpg-V5dbfAkfg9-11" value="effectue un pari" style="ellipse;whiteSpace=wrap;html=1;" vertex="1" parent="1">
          <mxGeometry x="210" y="300" width="180" height="60" as="geometry" />
        </mxCell>
        <mxCell id="jrktIPFpg-V5dbfAkfg9-13" value="" style="endArrow=none;dashed=1;html=1;rounded=0;entryX=0;entryY=1;entryDx=0;entryDy=0;" edge="1" parent="1" target="jrktIPFpg-V5dbfAkfg9-6">
          <mxGeometry width="50" height="50" relative="1" as="geometry">
            <mxPoint x="390" y="330" as="sourcePoint" />
            <mxPoint x="440" y="280" as="targetPoint" />
          </mxGeometry>
        </mxCell>
        <mxCell id="jrktIPFpg-V5dbfAkfg9-14" value="&quot;include&quot;" style="text;html=1;strokeColor=none;fillColor=none;align=center;verticalAlign=middle;whiteSpace=wrap;rounded=0;" vertex="1" parent="1">
          <mxGeometry x="460" y="250" width="60" height="30" as="geometry" />
        </mxCell>
        <mxCell id="jrktIPFpg-V5dbfAkfg9-16" value="" style="endArrow=none;html=1;rounded=0;exitX=0;exitY=0.333;exitDx=0;exitDy=0;exitPerimeter=0;" edge="1" parent="1" source="jrktIPFpg-V5dbfAkfg9-4">
          <mxGeometry width="50" height="50" relative="1" as="geometry">
            <mxPoint x="130" y="140" as="sourcePoint" />
            <mxPoint x="120" y="70" as="targetPoint" />
          </mxGeometry>
        </mxCell>
        <mxCell id="jrktIPFpg-V5dbfAkfg9-17" value="" style="endArrow=none;html=1;rounded=0;exitX=0.022;exitY=0.3;exitDx=0;exitDy=0;exitPerimeter=0;" edge="1" parent="1" source="jrktIPFpg-V5dbfAkfg9-5">
          <mxGeometry width="50" height="50" relative="1" as="geometry">
            <mxPoint x="115" y="180" as="sourcePoint" />
            <mxPoint x="120" y="70" as="targetPoint" />
          </mxGeometry>
        </mxCell>
        <mxCell id="jrktIPFpg-V5dbfAkfg9-18" value="" style="endArrow=none;html=1;rounded=0;" edge="1" parent="1">
          <mxGeometry width="50" height="50" relative="1" as="geometry">
            <mxPoint x="210" y="340" as="sourcePoint" />
            <mxPoint x="120" y="360" as="targetPoint" />
            <Array as="points" />
          </mxGeometry>
        </mxCell>
      </root>
    </mxGraphModel>
  </diagram>
</mxfile>
